<svg xmlns="http://www.w3.org/2000/svg" viewBox="0 0 100 100" fill="none">
  <defs>
    <linearGradient id="purpleGradient" x1="0%" y1="0%" x2="100%" y2="100%">
      <stop offset="0%" style="stop-color:#7c3aed"/>
      <stop offset="50%" style="stop-color:#a855f7"/>
      <stop offset="100%" style="stop-color:#d946ef"/>
    </linearGradient>
  </defs>
  <!-- Pelican head and beak -->
  <path d="M65 15 Q85 10 90 25 Q92 35 80 40 L55 45 Q50 42 52 38 L65 15Z" fill="url(#purpleGradient)"/>
  <!-- Pelican body curve -->
  <path d="M55 45 Q35 50 30 65 Q28 75 35 85 Q40 90 50 88 L55 85 Q45 80 45 70 Q45 55 55 45Z" fill="url(#purpleGradient)"/>
  <!-- Wing feathers -->
  <path d="M30 65 Q20 70 15 80 Q12 88 18 92 Q25 85 30 75 L30 65Z" fill="url(#purpleGradient)"/>
  <path d="M35 60 Q25 65 22 75 Q20 82 25 85 Q30 78 35 70 L35 60Z" fill="url(#purpleGradient)"/>
  <path d="M40 55 Q32 60 30 68 Q28 74 32 77 Q36 72 40 65 L40 55Z" fill="url(#purpleGradient)"/>
  <!-- Candlestick charts in body -->
  <rect x="48" y="58" width="4" height="18" rx="1" fill="url(#purpleGradient)"/>
  <line x1="50" y1="55" x2="50" y2="58" stroke="url(#purpleGradient)" stroke-width="1.5"/>
  <line x1="50" y1="76" x2="50" y2="80" stroke="url(#purpleGradient)" stroke-width="1.5"/>
  <rect x="56" y="52" width="4" height="22" rx="1" fill="url(#purpleGradient)"/>
  <line x1="58" y1="48" x2="58" y2="52" stroke="url(#purpleGradient)" stroke-width="1.5"/>
  <line x1="58" y1="74" x2="58" y2="78" stroke="url(#purpleGradient)" stroke-width="1.5"/>
  <rect x="64" y="55" width="4" height="20" rx="1" fill="url(#purpleGradient)"/>
  <line x1="66" y1="51" x2="66" y2="55" stroke="url(#purpleGradient)" stroke-width="1.5"/>
  <line x1="66" y1="75" x2="66" y2="79" stroke="url(#purpleGradient)" stroke-width="1.5"/>
</svg>
